<svg width="18" height="19" viewBox="0 0 18 19" fill="none" xmlns="http://www.w3.org/2000/svg">
<g clip-path="url(#clip0_11_173)">
<path d="M2.25 0.5C1.65326 0.5 1.08097 0.737053 0.65901 1.15901C0.237053 1.58097 0 2.15326 0 2.75L0 16.25C0 16.8467 0.237053 17.419 0.65901 17.841C1.08097 18.2629 1.65326 18.5 2.25 18.5H15.75C16.3467 18.5 16.919 18.2629 17.341 17.841C17.7629 17.419 18 16.8467 18 16.25V2.75C18 2.15326 17.7629 1.58097 17.341 1.15901C16.919 0.737053 16.3467 0.5 15.75 0.5L2.25 0.5ZM9.5625 5.5625V8.9375H12.9375C13.0867 8.9375 13.2298 8.99676 13.3352 9.10225C13.4407 9.20774 13.5 9.35082 13.5 9.5C13.5 9.64918 13.4407 9.79226 13.3352 9.89775C13.2298 10.0032 13.0867 10.0625 12.9375 10.0625H9.5625V13.4375C9.5625 13.5867 9.50324 13.7298 9.39775 13.8352C9.29226 13.9407 9.14918 14 9 14C8.85082 14 8.70774 13.9407 8.60225 13.8352C8.49676 13.7298 8.4375 13.5867 8.4375 13.4375V10.0625H5.0625C4.91332 10.0625 4.77024 10.0032 4.66475 9.89775C4.55926 9.79226 4.5 9.64918 4.5 9.5C4.5 9.35082 4.55926 9.20774 4.66475 9.10225C4.77024 8.99676 4.91332 8.9375 5.0625 8.9375H8.4375V5.5625C8.4375 5.41332 8.49676 5.27024 8.60225 5.16475C8.70774 5.05926 8.85082 5 9 5C9.14918 5 9.29226 5.05926 9.39775 5.16475C9.50324 5.27024 9.5625 5.41332 9.5625 5.5625Z" fill="white"/>
</g>
<defs>
<clipPath id="clip0_11_173">
<rect y="0.5" width="18" height="18" rx="5" fill="white"/>
</clipPath>
</defs>
</svg>
