<svg width="30" height="30" viewBox="0 0 30 30" fill="none" xmlns="http://www.w3.org/2000/svg">
<path d="M6.5625 14.0625H25.3125C25.5611 14.0625 25.7996 14.1613 25.9754 14.3371C26.1512 14.5129 26.25 14.7514 26.25 15C26.25 15.2486 26.1512 15.4871 25.9754 15.6629C25.7996 15.8387 25.5611 15.9375 25.3125 15.9375H6.5625C6.31386 15.9375 6.0754 15.8387 5.89959 15.6629C5.72377 15.4871 5.625 15.2486 5.625 15C5.625 14.7514 5.72377 14.5129 5.89959 14.3371C6.0754 14.1613 6.31386 14.0625 6.5625 14.0625Z" fill="#141414"/>
<path d="M6.95065 15L14.7263 22.7737C14.9023 22.9498 15.0012 23.1885 15.0012 23.4375C15.0012 23.6864 14.9023 23.9252 14.7263 24.1012C14.5502 24.2773 14.3115 24.3762 14.0625 24.3762C13.8136 24.3762 13.5748 24.2773 13.3988 24.1012L4.96128 15.6637C4.87397 15.5767 4.8047 15.4732 4.75744 15.3593C4.71018 15.2454 4.68585 15.1233 4.68585 15C4.68585 14.8767 4.71018 14.7546 4.75744 14.6407C4.8047 14.5268 4.87397 14.4233 4.96128 14.3362L13.3988 5.89874C13.5748 5.72271 13.8136 5.62381 14.0625 5.62381C14.3115 5.62381 14.5502 5.72271 14.7263 5.89874C14.9023 6.07478 15.0012 6.31354 15.0012 6.56249C15.0012 6.81145 14.9023 7.05021 14.7263 7.22624L6.95065 15Z" fill="#141414"/>
</svg>
