<svg width="14" height="15" viewBox="0 0 14 15" fill="none" xmlns="http://www.w3.org/2000/svg">
<path fill-rule="evenodd" clip-rule="evenodd" d="M4.2 1.43333C4.32377 1.43333 4.44247 1.4825 4.52998 1.57002C4.6175 1.65753 4.66667 1.77623 4.66667 1.9V2.36667H9.33333V1.9C9.33333 1.77623 9.3825 1.65753 9.47002 1.57002C9.55753 1.4825 9.67623 1.43333 9.8 1.43333C9.92377 1.43333 10.0425 1.4825 10.13 1.57002C10.2175 1.65753 10.2667 1.77623 10.2667 1.9V2.36667H11.6667C12.038 2.36667 12.3941 2.51417 12.6566 2.77672C12.9192 3.03927 13.0667 3.39536 13.0667 3.76667V12.1667C13.0667 12.538 12.9192 12.8941 12.6566 13.1566C12.3941 13.4192 12.038 13.5667 11.6667 13.5667H2.33333C1.96203 13.5667 1.60594 13.4192 1.34338 13.1566C1.08083 12.8941 0.933334 12.538 0.933334 12.1667V3.76667C0.933334 3.39536 1.08083 3.03927 1.34338 2.77672C1.60594 2.51417 1.96203 2.36667 2.33333 2.36667H3.73333V1.9C3.73333 1.77623 3.7825 1.65753 3.87002 1.57002C3.95754 1.4825 4.07623 1.43333 4.2 1.43333ZM9.33333 3.3V3.76667C9.33333 3.89044 9.3825 4.00913 9.47002 4.09665C9.55753 4.18417 9.67623 4.23333 9.8 4.23333C9.92377 4.23333 10.0425 4.18417 10.13 4.09665C10.2175 4.00913 10.2667 3.89044 10.2667 3.76667V3.3H11.6667C11.7904 3.3 11.9091 3.34917 11.9967 3.43668C12.0842 3.5242 12.1333 3.6429 12.1333 3.76667V5.16667H1.86667V3.76667C1.86667 3.6429 1.91583 3.5242 2.00335 3.43668C2.09087 3.34917 2.20957 3.3 2.33333 3.3H3.73333V3.76667C3.73333 3.89044 3.7825 4.00913 3.87002 4.09665C3.95754 4.18417 4.07623 4.23333 4.2 4.23333C4.32377 4.23333 4.44247 4.18417 4.52998 4.09665C4.6175 4.00913 4.66667 3.89044 4.66667 3.76667V3.3H9.33333ZM1.86667 6.1V12.1667C1.86667 12.2904 1.91583 12.4091 2.00335 12.4967C2.09087 12.5842 2.20957 12.6333 2.33333 12.6333H11.6667C11.7904 12.6333 11.9091 12.5842 11.9967 12.4967C12.0842 12.4091 12.1333 12.2904 12.1333 12.1667V6.1H1.86667ZM6.53333 7.5C6.53333 7.37623 6.5825 7.25753 6.67002 7.17002C6.75753 7.0825 6.87623 7.03333 7 7.03333C7.12377 7.03333 7.24247 7.0825 7.32998 7.17002C7.4175 7.25753 7.46667 7.37623 7.46667 7.5C7.46667 7.62377 7.4175 7.74247 7.32998 7.82998C7.24247 7.9175 7.12377 7.96667 7 7.96667C6.87623 7.96667 6.75753 7.9175 6.67002 7.82998C6.5825 7.74247 6.53333 7.62377 6.53333 7.5ZM8.86667 7.03333C8.7429 7.03333 8.6242 7.0825 8.53668 7.17002C8.44917 7.25753 8.4 7.37623 8.4 7.5C8.4 7.62377 8.44917 7.74247 8.53668 7.82998C8.6242 7.9175 8.7429 7.96667 8.86667 7.96667C8.99044 7.96667 9.10913 7.9175 9.19665 7.82998C9.28417 7.74247 9.33333 7.62377 9.33333 7.5C9.33333 7.37623 9.28417 7.25753 9.19665 7.17002C9.10913 7.0825 8.99044 7.03333 8.86667 7.03333ZM10.2667 7.5C10.2667 7.37623 10.3158 7.25753 10.4034 7.17002C10.4909 7.0825 10.6096 7.03333 10.7333 7.03333C10.8571 7.03333 10.9758 7.0825 11.0633 7.17002C11.1508 7.25753 11.2 7.37623 11.2 7.5C11.2 7.62377 11.1508 7.74247 11.0633 7.82998C10.9758 7.9175 10.8571 7.96667 10.7333 7.96667C10.6096 7.96667 10.4909 7.9175 10.4034 7.82998C10.3158 7.74247 10.2667 7.62377 10.2667 7.5ZM10.7333 8.9C10.6096 8.9 10.4909 8.94917 10.4034 9.03668C10.3158 9.1242 10.2667 9.2429 10.2667 9.36667C10.2667 9.49044 10.3158 9.60913 10.4034 9.69665C10.4909 9.78417 10.6096 9.83333 10.7333 9.83333C10.8571 9.83333 10.9758 9.78417 11.0633 9.69665C11.1508 9.60913 11.2 9.49044 11.2 9.36667C11.2 9.2429 11.1508 9.1242 11.0633 9.03668C10.9758 8.94917 10.8571 8.9 10.7333 8.9ZM8.4 9.36667C8.4 9.2429 8.44917 9.1242 8.53668 9.03668C8.6242 8.94917 8.7429 8.9 8.86667 8.9C8.99044 8.9 9.10913 8.94917 9.19665 9.03668C9.28417 9.1242 9.33333 9.2429 9.33333 9.36667C9.33333 9.49044 9.28417 9.60913 9.19665 9.69665C9.10913 9.78417 8.99044 9.83333 8.86667 9.83333C8.7429 9.83333 8.6242 9.78417 8.53668 9.69665C8.44917 9.60913 8.4 9.49044 8.4 9.36667ZM7 8.9C6.87623 8.9 6.75753 8.94917 6.67002 9.03668C6.5825 9.1242 6.53333 9.2429 6.53333 9.36667C6.53333 9.49044 6.5825 9.60913 6.67002 9.69665C6.75753 9.78417 6.87623 9.83333 7 9.83333C7.12377 9.83333 7.24247 9.78417 7.32998 9.69665C7.4175 9.60913 7.46667 9.49044 7.46667 9.36667C7.46667 9.2429 7.4175 9.1242 7.32998 9.03668C7.24247 8.94917 7.12377 8.9 7 8.9ZM4.66667 9.36667C4.66667 9.2429 4.71583 9.1242 4.80335 9.03668C4.89087 8.94917 5.00957 8.9 5.13333 8.9C5.2571 8.9 5.3758 8.94917 5.46332 9.03668C5.55083 9.1242 5.6 9.2429 5.6 9.36667C5.6 9.49044 5.55083 9.60913 5.46332 9.69665C5.3758 9.78417 5.2571 9.83333 5.13333 9.83333C5.00957 9.83333 4.89087 9.78417 4.80335 9.69665C4.71583 9.60913 4.66667 9.49044 4.66667 9.36667ZM3.26667 8.9C3.1429 8.9 3.0242 8.94917 2.93668 9.03668C2.84917 9.1242 2.8 9.2429 2.8 9.36667C2.8 9.49044 2.84917 9.60913 2.93668 9.69665C3.0242 9.78417 3.1429 9.83333 3.26667 9.83333C3.39044 9.83333 3.50913 9.78417 3.59665 9.69665C3.68417 9.60913 3.73333 9.49044 3.73333 9.36667C3.73333 9.2429 3.68417 9.1242 3.59665 9.03668C3.50913 8.94917 3.39044 8.9 3.26667 8.9ZM2.8 11.2333C2.8 11.1096 2.84917 10.9909 2.93668 10.9034C3.0242 10.8158 3.1429 10.7667 3.26667 10.7667C3.39044 10.7667 3.50913 10.8158 3.59665 10.9034C3.68417 10.9909 3.73333 11.1096 3.73333 11.2333C3.73333 11.3571 3.68417 11.4758 3.59665 11.5633C3.50913 11.6508 3.39044 11.7 3.26667 11.7C3.1429 11.7 3.0242 11.6508 2.93668 11.5633C2.84917 11.4758 2.8 11.3571 2.8 11.2333ZM5.13333 10.7667C5.00957 10.7667 4.89087 10.8158 4.80335 10.9034C4.71583 10.9909 4.66667 11.1096 4.66667 11.2333C4.66667 11.3571 4.71583 11.4758 4.80335 11.5633C4.89087 11.6508 5.00957 11.7 5.13333 11.7C5.2571 11.7 5.3758 11.6508 5.46332 11.5633C5.55083 11.4758 5.6 11.3571 5.6 11.2333C5.6 11.1096 5.55083 10.9909 5.46332 10.9034C5.3758 10.8158 5.2571 10.7667 5.13333 10.7667ZM6.53333 11.2333C6.53333 11.1096 6.5825 10.9909 6.67002 10.9034C6.75753 10.8158 6.87623 10.7667 7 10.7667C7.12377 10.7667 7.24247 10.8158 7.32998 10.9034C7.4175 10.9909 7.46667 11.1096 7.46667 11.2333C7.46667 11.3571 7.4175 11.4758 7.32998 11.5633C7.24247 11.6508 7.12377 11.7 7 11.7C6.87623 11.7 6.75753 11.6508 6.67002 11.5633C6.5825 11.4758 6.53333 11.3571 6.53333 11.2333ZM8.86667 10.7667C8.7429 10.7667 8.6242 10.8158 8.53668 10.9034C8.44917 10.9909 8.4 11.1096 8.4 11.2333C8.4 11.3571 8.44917 11.4758 8.53668 11.5633C8.6242 11.6508 8.7429 11.7 8.86667 11.7C8.99044 11.7 9.10913 11.6508 9.19665 11.5633C9.28417 11.4758 9.33333 11.3571 9.33333 11.2333C9.33333 11.1096 9.28417 10.9909 9.19665 10.9034C9.10913 10.8158 8.99044 10.7667 8.86667 10.7667Z" fill="#141414"/>
</svg>
