<svg width="20" height="20" viewBox="0 0 20 20" fill="none" xmlns="http://www.w3.org/2000/svg">
<rect width="20" height="20" rx="6" fill="#141414"/>
<path d="M4 13.5V16H6.5L13.8733 8.62666L11.3733 6.12666L4 13.5ZM15.8067 6.69333C15.8685 6.63165 15.9175 6.5584 15.951 6.47775C15.9844 6.3971 16.0016 6.31064 16.0016 6.22333C16.0016 6.13602 15.9844 6.04956 15.951 5.96891C15.9175 5.88827 15.8685 5.81501 15.8067 5.75333L14.2467 4.19333C14.185 4.13153 14.1117 4.0825 14.0311 4.04904C13.9504 4.01559 13.864 3.99837 13.7767 3.99837C13.6894 3.99837 13.6029 4.01559 13.5223 4.04904C13.4416 4.0825 13.3683 4.13153 13.3067 4.19333L12.0867 5.41333L14.5867 7.91333L15.8067 6.69333Z" fill="white"/>
</svg>
