<svg width="24" height="24" viewBox="0 0 24 24" fill="none" xmlns="http://www.w3.org/2000/svg">
<path d="M23.3175 9.837C23.4574 10.6424 23.5272 11.4585 23.526 12.276C23.526 15.927 22.221 19.014 19.95 21.1035H19.953C17.967 22.938 15.237 24 12 24C8.8174 24 5.76516 22.7357 3.51472 20.4853C1.26428 18.2348 0 15.1826 0 12C0 8.8174 1.26428 5.76515 3.51472 3.51472C5.76516 1.26428 8.8174 -1.62711e-06 12 -1.62711e-06C14.9789 -0.0348892 17.8558 1.08425 20.028 3.123L16.602 6.549C15.3636 5.36846 13.7107 4.72199 12 4.749C8.8695 4.749 6.21 6.861 5.262 9.705C4.75936 11.1953 4.75936 12.8092 5.262 14.2995H5.2665C6.219 17.139 8.874 19.251 12.0045 19.251C13.6215 19.251 15.0105 18.837 16.0875 18.105H16.083C16.7084 17.6907 17.2433 17.154 17.6555 16.5273C18.0678 15.9006 18.3487 15.1968 18.4815 14.4585H12V9.8385H23.3175V9.837Z" fill="white"/>
</svg>
